<svg height="480" version="1.1" width="640" xmlns="http://www.w3.org/2000/svg" style="overflow: hidden; position: relative; left: -0.5px; top: -0.3125px;"><desc style="-webkit-tap-highlight-color: rgba(0, 0, 0, 0);">Created with Raphaël 2.0.1</desc><defs style="-webkit-tap-highlight-color: rgba(0, 0, 0, 0);"></defs><rect x="0" y="0" width="640" height="480" r="0" rx="0" ry="0" fill="#242424" stroke="none" style="-webkit-tap-highlight-color: rgba(0, 0, 0, 0);"></rect><rect x="307" y="338" width="215" height="287" r="5" rx="5" ry="5" fill="#ffffff" stroke="none" transform="matrix(1,0,0,1,-107.5,-143.5)" stroke-width="0" opacity="0.2" style="-webkit-tap-highlight-color: rgba(0, 0, 0, 0); opacity: 0.2;"></rect><rect x="318" y="248" width="87" height="20" r="5" rx="5" ry="5" fill="#ffffff" stroke="none" transform="matrix(1,0,0,1,-43.5,-10)" stroke-width="0" opacity="0.2" style="-webkit-tap-highlight-color: rgba(0, 0, 0, 0); opacity: 0.2;"></rect><rect x="268" y="137" width="283" height="67" r="5" rx="5" ry="5" fill="#ffffff" stroke="none" transform="matrix(1,0,0,1,-141.5,-33.5)" stroke-width="0" opacity="0.2" style="-webkit-tap-highlight-color: rgba(0, 0, 0, 0); opacity: 0.2;"></rect><rect x="265" y="228" width="320" height="300" r="5" rx="5" ry="5" fill="#ffffff" stroke="none" transform="matrix(1,0,0,1,-160,-150)" stroke-width="0" opacity="0.2" style="-webkit-tap-highlight-color: rgba(0, 0, 0, 0); opacity: 0.2;"></rect><rect x="185" y="139" width="237" height="248" r="5" rx="5" ry="5" fill="#ffffff" stroke="none" transform="matrix(1,0,0,1,-118.5,-124)" stroke-width="0" opacity="0.2" style="-webkit-tap-highlight-color: rgba(0, 0, 0, 0); opacity: 0.2;"></rect><rect x="294" y="294" width="48" height="20" r="5" rx="5" ry="5" fill="#ffffff" stroke="none" transform="matrix(1,0,0,1,-24,-10)" stroke-width="0" opacity="0.2" style="-webkit-tap-highlight-color: rgba(0, 0, 0, 0); opacity: 0.2;"></rect><rect x="397" y="177" width="312" height="246" r="5" rx="5" ry="5" fill="#ffffff" stroke="none" transform="matrix(1,0,0,1,-156,-123)" stroke-width="0" opacity="0.2" style="-webkit-tap-highlight-color: rgba(0, 0, 0, 0); opacity: 0.2;"></rect><rect x="445" y="273" width="150" height="185" r="5" rx="5" ry="5" fill="#ffffff" stroke="none" transform="matrix(1,0,0,1,-75,-92.5)" stroke-width="0" opacity="0.2" style="-webkit-tap-highlight-color: rgba(0, 0, 0, 0); opacity: 0.2;"></rect><rect x="140" y="253" width="78" height="117" r="5" rx="5" ry="5" fill="#ffffff" stroke="none" transform="matrix(1,0,0,1,-39,-58.5)" stroke-width="0" opacity="0.2" style="-webkit-tap-highlight-color: rgba(0, 0, 0, 0); opacity: 0.2;"></rect><rect x="481" y="188" width="232" height="26" r="5" rx="5" ry="5" fill="#ffffff" stroke="none" transform="matrix(1,0,0,1,-116,-13)" stroke-width="0" opacity="0.2" style="-webkit-tap-highlight-color: rgba(0, 0, 0, 0); opacity: 0.2;"></rect><rect x="443" y="167" width="252" height="311" r="5" rx="5" ry="5" fill="#ffffff" stroke="none" transform="matrix(1,0,0,1,-126,-155.5)" stroke-width="0" opacity="0.2" style="-webkit-tap-highlight-color: rgba(0, 0, 0, 0); opacity: 0.2;"></rect><rect x="455" y="281" width="56" height="225" r="5" rx="5" ry="5" fill="#ffffff" stroke="none" transform="matrix(1,0,0,1,-28,-112.5)" stroke-width="0" opacity="0.2" style="-webkit-tap-highlight-color: rgba(0, 0, 0, 0); opacity: 0.2;"></rect><rect x="142" y="230" width="248" height="28" r="5" rx="5" ry="5" fill="#ffffff" stroke="none" transform="matrix(1,0,0,1,-124,-14)" stroke-width="0" opacity="0.2" style="-webkit-tap-highlight-color: rgba(0, 0, 0, 0); opacity: 0.2;"></rect><rect x="503" y="310" width="148" height="298" r="5" rx="5" ry="5" fill="#ffffff" stroke="none" transform="matrix(1,0,0,1,-74,-149)" stroke-width="0" opacity="0.2" style="-webkit-tap-highlight-color: rgba(0, 0, 0, 0); opacity: 0.2;"></rect><rect x="197" y="139" width="280" height="290" r="5" rx="5" ry="5" fill="#ffffff" stroke="none" transform="matrix(1,0,0,1,-140,-145)" stroke-width="0" opacity="0.2" style="-webkit-tap-highlight-color: rgba(0, 0, 0, 0); opacity: 0.2;"></rect><rect x="157" y="154" width="277" height="316" r="5" rx="5" ry="5" fill="#ffffff" stroke="none" transform="matrix(1,0,0,1,-138.5,-158)" stroke-width="0" opacity="0.2" style="-webkit-tap-highlight-color: rgba(0, 0, 0, 0); opacity: 0.2;"></rect><rect x="184" y="177" width="154" height="133" r="5" rx="5" ry="5" fill="#ffffff" stroke="none" transform="matrix(1,0,0,1,-77,-66.5)" stroke-width="0" opacity="0.2" style="-webkit-tap-highlight-color: rgba(0, 0, 0, 0); opacity: 0.2;"></rect><rect x="484" y="188" width="117" height="165" r="5" rx="5" ry="5" fill="#ffffff" stroke="none" transform="matrix(1,0,0,1,-58.5,-82.5)" stroke-width="0" opacity="0.2" style="-webkit-tap-highlight-color: rgba(0, 0, 0, 0); opacity: 0.2;"></rect><rect x="516" y="204" width="253" height="224" r="5" rx="5" ry="5" fill="#ffffff" stroke="none" transform="matrix(1,0,0,1,-126.5,-112)" stroke-width="0" opacity="0.2" style="-webkit-tap-highlight-color: rgba(0, 0, 0, 0); opacity: 0.2;"></rect><rect x="141" y="211" width="74" height="93" r="5" rx="5" ry="5" fill="#ffffff" stroke="none" transform="matrix(1,0,0,1,-37,-46.5)" stroke-width="0" opacity="0.2" style="-webkit-tap-highlight-color: rgba(0, 0, 0, 0); opacity: 0.2;"></rect><rect x="296" y="213" width="134" height="173" r="5" rx="5" ry="5" fill="#ffffff" stroke="none" transform="matrix(1,0,0,1,-67,-86.5)" stroke-width="0" opacity="0.2" style="-webkit-tap-highlight-color: rgba(0, 0, 0, 0); opacity: 0.2;"></rect><rect x="455" y="347" width="202" height="88" r="5" rx="5" ry="5" fill="#ffffff" stroke="none" transform="matrix(1,0,0,1,-101,-44)" stroke-width="0" opacity="0.2" style="-webkit-tap-highlight-color: rgba(0, 0, 0, 0); opacity: 0.2;"></rect><rect x="402" y="236" width="50" height="247" r="5" rx="5" ry="5" fill="#ffffff" stroke="none" transform="matrix(1,0,0,1,-25,-123.5)" stroke-width="0" opacity="0.2" style="-webkit-tap-highlight-color: rgba(0, 0, 0, 0); opacity: 0.2;"></rect><rect x="282" y="219" width="213" height="264" r="5" rx="5" ry="5" fill="#ffffff" stroke="none" transform="matrix(1,0,0,1,-106.5,-132)" stroke-width="0" opacity="0.2" style="-webkit-tap-highlight-color: rgba(0, 0, 0, 0); opacity: 0.2;"></rect><rect x="129" y="199" width="66" height="286" r="5" rx="5" ry="5" fill="#ffffff" stroke="none" transform="matrix(1,0,0,1,-33,-143)" stroke-width="0" opacity="0.2" style="-webkit-tap-highlight-color: rgba(0, 0, 0, 0); opacity: 0.2;"></rect><rect x="135" y="186" width="241" height="190" r="5" rx="5" ry="5" fill="#ffffff" stroke="none" transform="matrix(1,0,0,1,-120.5,-95)" stroke-width="0" opacity="0.2" style="-webkit-tap-highlight-color: rgba(0, 0, 0, 0); opacity: 0.2;"></rect><rect x="151" y="291" width="219" height="318" r="5" rx="5" ry="5" fill="#ffffff" stroke="none" transform="matrix(1,0,0,1,-109.5,-159)" stroke-width="0" opacity="0.2" style="-webkit-tap-highlight-color: rgba(0, 0, 0, 0); opacity: 0.2;"></rect><rect x="404" y="259" width="113" height="303" r="5" rx="5" ry="5" fill="#ffffff" stroke="none" transform="matrix(1,0,0,1,-56.5,-151.5)" stroke-width="0" opacity="0.2" style="-webkit-tap-highlight-color: rgba(0, 0, 0, 0); opacity: 0.2;"></rect><rect x="150" y="354" width="38" height="240" r="5" rx="5" ry="5" fill="#ffffff" stroke="none" transform="matrix(1,0,0,1,-19,-120)" stroke-width="0" opacity="0.2" style="-webkit-tap-highlight-color: rgba(0, 0, 0, 0); opacity: 0.2;"></rect><rect x="211" y="282" width="228" height="214" r="5" rx="5" ry="5" fill="#ffffff" stroke="none" transform="matrix(1,0,0,1,-114,-107)" stroke-width="0" opacity="0.2" style="-webkit-tap-highlight-color: rgba(0, 0, 0, 0); opacity: 0.2;"></rect><rect x="439" y="266" width="224" height="107" r="5" rx="5" ry="5" fill="#ffffff" stroke="none" transform="matrix(1,0,0,1,-112,-53.5)" stroke-width="0" opacity="0.2" style="-webkit-tap-highlight-color: rgba(0, 0, 0, 0); opacity: 0.2;"></rect><rect x="138" y="168" width="298" height="302" r="5" rx="5" ry="5" fill="#ffffff" stroke="none" transform="matrix(1,0,0,1,-149,-151)" stroke-width="0" opacity="0.2" style="-webkit-tap-highlight-color: rgba(0, 0, 0, 0); opacity: 0.2;"></rect></svg>