<?xml version="1.0" encoding="UTF-8" standalone="no"?>
<!-- Created with Inkscape (http://www.inkscape.org/) -->

<svg
   xmlns:dc="http://purl.org/dc/elements/1.1/"
   xmlns:cc="http://creativecommons.org/ns#"
   xmlns:rdf="http://www.w3.org/1999/02/22-rdf-syntax-ns#"
   xmlns:svg="http://www.w3.org/2000/svg"
   xmlns="http://www.w3.org/2000/svg"
   version="1.1"
   width="800"
   height="800"
   id="svg2">
  <defs
     id="defs4" />
  <metadata
     id="metadata7">
    <rdf:RDF>
      <cc:Work
         rdf:about="">
        <dc:format>image/svg+xml</dc:format>
        <dc:type
           rdf:resource="http://purl.org/dc/dcmitype/StillImage" />
        <dc:title></dc:title>
      </cc:Work>
    </rdf:RDF>
  </metadata>
  <g
     transform="translate(0,-252.36218)"
     id="layer1">
    <g
       id="g8901">
      <g
         transform="matrix(1.9285111,0,0,1.9285111,-657.33903,-652.76832)"
         id="text8807-1"
         style="font-size:18px;font-style:normal;font-variant:normal;font-weight:bold;font-stretch:normal;line-height:125%;letter-spacing:0px;word-spacing:0px;fill:#000000;fill-opacity:1;stroke:none;font-family:Roboto;-inkscape-font-specification:Roboto Bold">
        <path
           d="m 433.45508,684.29858 31.71094,-56.88281 9.77343,0 -37.33593,64.96875 0,37.40625 -8.36719,0 0,-37.75781 -37.05469,-64.61719 9.77344,0 z"
           id="path8877-7"
           style="font-size:144px;font-weight:300;font-family:Roboto Lt;-inkscape-font-specification:Roboto Lt Light" />
        <path
           d="m 538.29102,696.81421 16.03125,0 0,7.10156 -16.03125,0 0,25.875 -8.36719,0 0,-25.875 -47.03906,0 0,-4.78125 46.19531,-71.71875 9.21094,0 z m -45.42188,0 37.05469,0 0,-58.35938 -0.42188,-0.14062 -3.58593,7.66406 z"
           id="path8879-4"
           style="font-size:144px;font-weight:300;font-family:Roboto Lt;-inkscape-font-specification:Roboto Lt Light" />
        <path
           d="m 586.17383,692.73608 -8.85938,0 0,37.05469 -8.4375,0 0,-109.6875 8.4375,0 0,65.39063 8.01563,0 29.17969,-31.78125 9.84375,0 0.14062,0.35156 -31.21875,34.52344 33.75,40.85156 -0.21094,0.35156 -9.63281,0 z"
           id="path8881-0"
           style="font-size:144px;font-weight:300;font-family:Roboto Lt;-inkscape-font-specification:Roboto Lt Light" />
      </g>
      <path
         d="m 79.153051,501.76614 502.392169,0"
         id="path8813-9"
         style="fill:none;stroke:#000000;stroke-width:13.92035007px;stroke-linecap:butt;stroke-linejoin:miter;stroke-opacity:1" />
      <path
         d="m 76.327547,798.76494 497.862073,0"
         id="path8813-1-4"
         style="fill:none;stroke:#000000;stroke-width:13.85744953px;stroke-linecap:butt;stroke-linejoin:miter;stroke-opacity:1" />
      <path
         d="m 575.07743,805.57953 0,-298.60526"
         id="path8813-4-8"
         style="fill:none;stroke:#000000;stroke-width:12.69180298px;stroke-linecap:butt;stroke-linejoin:miter;stroke-opacity:1" />
      <path
         d="m 611.71168,798.7796 138.0062,0"
         id="path8813-0-8"
         style="fill:none;stroke:#000000;stroke-width:13.77427197px;stroke-linecap:butt;stroke-linejoin:miter;stroke-opacity:1" />
    </g>
  </g>
</svg>
