<?xml version="1.0" encoding="iso-8859-1"?>
<!-- Generator: Adobe Illustrator 19.0.0, SVG Export Plug-In . SVG Version: 6.00 Build 0)  -->
<svg version="1.1" id="Layer_1" xmlns="http://www.w3.org/2000/svg" xmlns:xlink="http://www.w3.org/1999/xlink" x="0px" y="0px"
	 viewBox="0 0 481.882 481.882" style="enable-background:new 0 0 481.882 481.882;" xml:space="preserve">
<path style="fill:#EBF0F3;" d="M315.031,0H69.873c-6.024,0-11.445,4.819-11.445,11.445v458.993c0,6.024,4.819,11.445,11.445,11.445
	h342.137c6.024,0,11.445-4.819,11.445-11.445V108.424c0-3.012-1.205-6.024-3.012-7.831L322.861,3.012
	C320.452,1.205,318.042,0,315.031,0z"/>
<g>
	<path style="fill:#E56353;" d="M101.798,216.245h18.071v49.995h-7.831v-42.165h-10.24V216.245z"/>
	<path style="fill:#E56353;" d="M136.132,259.012c-3.614-4.819-4.819-10.842-4.819-18.673s1.807-13.854,4.819-18.673
		c3.614-4.819,8.433-7.228,15.059-7.228s12.047,2.409,15.059,7.228c3.614,4.819,4.819,10.842,4.819,18.673
		s-1.807,13.854-4.819,18.673c-3.614,4.819-8.433,7.228-15.059,7.228S139.746,263.831,136.132,259.012z M142.155,227.087
		c-1.807,3.614-3.012,7.831-3.012,13.252s1.205,10.24,3.012,13.252c1.807,3.614,4.819,5.421,9.035,5.421s7.228-1.807,9.035-4.819
		c1.807-3.614,3.012-7.831,3.012-13.252s-1.205-10.24-3.012-13.252c-1.807-3.614-4.819-4.819-9.035-4.819
		C146.974,222.268,143.962,223.473,142.155,227.087z"/>
	<path style="fill:#E56353;" d="M177.694,216.245h18.071v49.995h-7.831v-42.165h-10.24V216.245z"/>
	<path style="fill:#E56353;" d="M212.028,259.012c-3.614-4.819-4.819-10.842-4.819-18.673s1.807-13.854,4.819-18.673
		c3.614-4.819,8.433-7.228,15.059-7.228c6.626,0,12.047,2.409,15.059,7.228c3.614,4.819,4.819,10.842,4.819,18.673
		s-1.807,13.854-4.819,18.673c-3.614,4.819-8.433,7.228-15.059,7.228S215.642,263.831,212.028,259.012z M218.052,227.087
		c-1.807,3.614-3.012,7.831-3.012,13.252s1.205,10.24,3.012,13.252c1.807,3.614,4.819,5.421,9.035,5.421s7.228-1.807,9.035-4.819
		c1.807-3.614,3.012-7.831,3.012-13.252s-1.205-10.24-3.012-13.252c-1.807-3.614-4.819-4.819-9.035-4.819
		C223.473,222.268,219.859,223.473,218.052,227.087z"/>
	<path style="fill:#E56353;" d="M254.193,216.245h18.071v49.995h-7.831v-42.165h-10.24V216.245z"/>
	<path style="fill:#E56353;" d="M281.299,216.245h18.071v49.995h-7.831v-42.165h-10.24V216.245z"/>
	<path style="fill:#E56353;" d="M315.031,259.012c-3.614-4.819-4.819-10.842-4.819-18.673s1.807-13.854,4.819-18.673
		c3.614-4.819,8.433-7.228,15.059-7.228c6.626,0,12.047,2.409,15.059,7.228c3.614,4.819,4.819,10.842,4.819,18.673
		s-1.807,13.854-4.819,18.673c-3.614,4.819-8.433,7.228-15.059,7.228C323.464,266.24,318.645,263.831,315.031,259.012z
		 M321.054,227.087c-1.807,3.614-3.012,7.831-3.012,13.252s1.205,10.24,3.012,13.252c1.807,3.614,4.819,5.421,9.035,5.421
		c4.216,0,7.228-1.807,9.035-4.819c1.807-3.614,3.012-7.831,3.012-13.252s-1.205-10.24-3.012-13.252
		c-1.807-3.614-4.819-4.819-9.035-4.819C326.475,222.268,323.464,223.473,321.054,227.087z"/>
	<path style="fill:#E56353;" d="M357.195,216.245h18.071v49.995h-7.831v-42.165h-10.24L357.195,216.245L357.195,216.245z"/>
	<path style="fill:#E56353;" d="M101.798,282.504h18.071v49.995h-7.831v-42.165h-10.24V282.504z"/>
	<path style="fill:#E56353;" d="M128.904,282.504h18.071v49.995h-7.831v-42.165h-10.24V282.504z"/>
	<path style="fill:#E56353;" d="M163.238,325.873c-3.614-4.819-4.819-10.842-4.819-18.673c0-7.831,1.807-13.854,4.819-18.673
		c3.614-4.819,8.433-7.228,15.059-7.228c6.626,0,12.047,2.409,15.059,7.228c3.614,4.819,4.819,10.842,4.819,18.673
		c0,7.831-1.807,13.854-4.819,18.673c-3.614,4.819-8.433,7.228-15.059,7.228C171.671,333.101,166.852,330.692,163.238,325.873z
		 M169.261,293.948c-1.807,3.614-3.012,7.831-3.012,13.252c0,5.421,1.205,10.24,3.012,13.252c1.807,3.614,4.819,4.819,9.035,4.819
		c4.216,0,7.228-1.807,9.035-4.819c1.807-3.614,3.012-7.831,3.012-13.252c0-5.421-1.205-10.24-3.012-13.252
		c-1.807-3.614-4.819-4.819-9.035-4.819C174.08,288.527,171.068,290.334,169.261,293.948z"/>
	<path style="fill:#E56353;" d="M204.8,282.504h18.071v49.995h-7.831v-42.165H204.8V282.504z"/>
	<path style="fill:#E56353;" d="M239.134,325.873c-3.614-4.819-4.819-10.842-4.819-18.673c0-7.831,1.807-13.854,4.819-18.673
		c3.614-4.819,8.433-7.228,15.059-7.228c6.626,0,12.047,2.409,15.059,7.228c3.614,4.819,4.819,10.842,4.819,18.673
		c0,7.831-1.807,13.854-4.819,18.673c-3.614,4.819-8.433,7.228-15.059,7.228S242.748,330.692,239.134,325.873z M245.158,293.948
		c-1.807,3.614-3.012,7.831-3.012,13.252c0,5.421,1.205,10.24,3.012,13.252c1.807,3.012,4.819,4.819,9.035,4.819
		c4.216,0,7.228-1.807,9.035-4.819c1.807-3.614,3.012-7.831,3.012-13.252c0-5.421-1.205-10.24-3.012-13.252
		c-1.807-3.614-4.819-4.819-9.035-4.819C250.579,288.527,246.965,290.334,245.158,293.948z"/>
	<path style="fill:#E56353;" d="M281.299,282.504h18.071v49.995h-7.831v-42.165h-10.24V282.504z"/>
	<path style="fill:#E56353;" d="M315.031,325.873c-3.614-4.819-4.819-10.842-4.819-18.673c0-7.831,1.807-13.854,4.819-18.673
		c3.614-4.819,8.433-7.228,15.059-7.228c6.626,0,12.047,2.409,15.059,7.228c3.614,4.819,4.819,10.842,4.819,18.673
		c0,7.831-1.807,13.854-4.819,18.673c-3.614,4.819-8.433,7.228-15.059,7.228C323.464,333.101,318.645,330.692,315.031,325.873z
		 M321.054,293.948c-1.807,3.614-3.012,7.831-3.012,13.252c0,5.421,1.205,10.24,3.012,13.252c1.807,3.614,4.819,4.819,9.035,4.819
		c4.216,0,7.228-1.807,9.035-4.819c1.807-3.614,3.012-7.831,3.012-13.252c0-5.421-1.205-10.24-3.012-13.252
		c-1.807-3.614-4.819-4.819-9.035-4.819C326.475,288.527,323.464,290.334,321.054,293.948z"/>
	<path style="fill:#E56353;" d="M357.195,282.504h18.071v49.995h-7.831v-42.165h-10.24L357.195,282.504L357.195,282.504z"/>
	<path style="fill:#E56353;" d="M100.593,392.734c-3.614-4.819-4.819-10.842-4.819-18.673c0-7.831,1.807-13.854,4.819-18.673
		c3.614-4.819,8.433-7.228,15.059-7.228c6.626,0,12.047,2.409,15.059,7.228c3.614,4.819,4.819,10.842,4.819,18.673
		s-1.807,13.854-4.819,18.673c-3.614,4.819-8.433,7.228-15.059,7.228C109.026,399.36,104.207,396.951,100.593,392.734z
		 M106.616,360.207c-1.807,3.614-3.012,7.831-3.012,13.252s1.205,10.24,3.012,13.252c1.807,3.614,4.819,5.421,9.035,5.421
		c4.216,0,7.228-1.807,9.035-4.819c1.807-3.614,3.012-7.831,3.012-13.252c0-5.421-1.205-10.24-3.012-13.252
		c-1.807-3.614-4.819-4.819-9.035-4.819C112.038,355.388,109.026,357.195,106.616,360.207z"/>
	<path style="fill:#E56353;" d="M149.986,392.734c-3.614-4.819-4.819-10.842-4.819-18.673c0-7.831,1.807-13.854,4.819-18.673
		c3.614-4.819,8.433-7.228,15.059-7.228s12.047,2.409,15.059,7.228c3.614,4.819,4.819,10.842,4.819,18.673
		s-1.807,13.854-4.819,18.673c-3.614,4.819-8.433,7.228-15.059,7.228C158.419,399.36,152.998,396.951,149.986,392.734z
		 M155.407,360.207c-1.807,3.614-3.012,7.831-3.012,13.252s1.205,10.24,3.012,13.252c1.807,3.614,4.819,5.421,9.035,5.421
		s7.228-1.807,9.035-4.819c1.807-3.614,3.012-7.831,3.012-13.252c0-5.421-1.205-10.24-3.012-13.252
		c-1.807-3.614-4.819-4.819-9.035-4.819C160.828,355.388,157.816,357.195,155.407,360.207z"/>
	<path style="fill:#E56353;" d="M198.776,392.734c-3.614-4.819-4.819-10.842-4.819-18.673c0-7.831,1.807-13.854,4.819-18.673
		c3.614-4.819,8.433-7.228,15.059-7.228c6.626,0,12.047,2.409,15.059,7.228c3.614,4.819,4.819,10.842,4.819,18.673
		s-1.807,13.854-4.819,18.673c-3.614,4.819-8.433,7.228-15.059,7.228C207.209,399.36,201.788,396.951,198.776,392.734z
		 M204.8,360.207c-1.807,3.614-3.012,7.831-3.012,13.252s1.205,10.24,3.012,13.252c1.807,3.614,4.819,5.421,9.035,5.421
		s7.228-1.807,9.035-4.819c1.807-3.614,3.012-7.831,3.012-13.252c0-5.421-1.205-10.24-3.012-13.252
		c-1.807-3.614-4.819-4.819-9.035-4.819C209.619,355.388,206.607,357.195,204.8,360.207z"/>
	<path style="fill:#E56353;" d="M240.339,349.365h18.071v49.995h-7.831v-42.165h-10.24V349.365z"/>
	<path style="fill:#E56353;" d="M274.673,392.734c-3.614-4.819-4.819-10.842-4.819-18.673c0-7.831,1.807-13.854,4.819-18.673
		c3.614-4.819,8.433-7.228,15.059-7.228s12.047,2.409,15.059,7.228c3.614,4.819,4.819,10.842,4.819,18.673
		s-1.807,13.854-4.819,18.673c-3.614,4.819-8.433,7.228-15.059,7.228C283.106,399.36,278.287,396.951,274.673,392.734z
		 M280.696,360.207c-1.807,3.614-3.012,7.831-3.012,13.252s1.205,10.24,3.012,13.252c1.807,3.614,4.819,5.421,9.035,5.421
		s7.228-1.807,9.035-4.819c1.807-3.614,3.012-7.831,3.012-13.252c0-5.421-1.205-10.24-3.012-13.252
		c-1.807-3.614-4.819-4.819-9.035-4.819S282.504,357.195,280.696,360.207z"/>
	<path style="fill:#E56353;" d="M316.235,349.365h18.071v49.995h-7.831v-42.165h-10.24V349.365z"/>
	<path style="fill:#E56353;" d="M350.569,392.734c-3.614-4.819-4.819-10.842-4.819-18.673c0-7.831,1.807-13.854,4.819-18.673
		c3.614-4.819,8.433-7.228,15.059-7.228s12.047,2.409,15.059,7.228c3.614,4.819,4.819,10.842,4.819,18.673
		s-1.807,13.854-4.819,18.673c-3.614,4.819-8.433,7.228-15.059,7.228C359.002,399.36,354.184,396.951,350.569,392.734z
		 M356.593,360.207c-1.807,3.614-3.012,7.831-3.012,13.252s1.205,10.24,3.012,13.252c1.807,3.614,4.819,5.421,9.035,5.421
		s7.228-1.807,9.035-4.819c1.807-3.614,3.012-7.831,3.012-13.252c0-5.421-1.205-10.24-3.012-13.252
		c-1.807-3.614-4.819-4.819-9.035-4.819C362.014,355.388,358.4,357.195,356.593,360.207z"/>
</g>
<path style="fill:#D5D6DB;" d="M330.692,103.605h91.558c-0.602-1.205-1.205-2.409-2.409-3.012l-48.791-48.791L322.861,3.012
	c-1.205-1.205-1.807-1.807-3.012-2.409V92.16C319.247,98.786,324.668,103.605,330.692,103.605z"/>
<g>
</g>
<g>
</g>
<g>
</g>
<g>
</g>
<g>
</g>
<g>
</g>
<g>
</g>
<g>
</g>
<g>
</g>
<g>
</g>
<g>
</g>
<g>
</g>
<g>
</g>
<g>
</g>
<g>
</g>
</svg>
